<svg width="270" height="233" viewBox="0 0 270 233" fill="none" xmlns="http://www.w3.org/2000/svg">
<path fill-rule="evenodd" clip-rule="evenodd" d="M164.818 0.697642C148.602 3.42364 134.914 9.89764 125.283 19.3966C114.746 29.7906 109.757 40.7596 108.28 56.7816L107.61 64.0586L103.464 59.6646C98.0281 53.9026 92.5791 50.5996 83.0871 47.3126C76.2401 44.9416 73.8341 44.6256 62.8181 44.6476C51.8601 44.6696 49.3311 45.0096 42.3181 47.4046C14.4091 56.9356 -1.77394 79.7986 0.155063 106.975C0.884063 117.237 4.71106 131.121 9.11406 139.478C13.0001 146.852 24.7381 158.8 34.3181 165.132C49.2521 175.004 61.7751 180.847 85.8181 189.161C124.699 202.605 152.099 215.725 168.516 228.758L172.614 232.012L173.301 224.758C173.678 220.769 175.094 212.613 176.447 206.633C177.8 200.653 178.675 195.528 178.39 195.244C177.515 194.368 170.971 208.961 169.708 214.607L168.515 219.937L163.916 216.107C146.665 201.735 122.379 190.235 90.9271 181.545C70.1901 175.815 54.5721 167.033 41.2661 153.621C32.4191 144.703 28.5511 137.891 24.9631 124.911C17.5201 97.9836 25.5461 78.6576 48.8661 67.3526C71.9221 56.1756 91.9891 58.0446 108.021 72.8626L113.818 78.2196V73.8226C113.818 62.4786 120.858 46.9156 130.115 37.7956C140.833 27.2356 154.334 22.5136 171.75 23.2316C191.465 24.0456 207.762 32.8616 221.242 50.0046L223.994 53.5046L223.343 48.0046C221.747 34.5356 213.287 17.7606 204.497 10.6336C193.961 2.09164 178.923 -1.67436 164.818 0.697642ZM172.318 46.5776C167.655 49.0026 165.002 51.9296 162.112 57.8356C156.698 68.9016 159.333 84.7196 167.875 92.4376C178.027 101.609 190.983 98.5426 197.387 85.4536C199.668 80.7906 200.185 78.3666 200.238 72.0936C200.294 65.3876 199.894 63.6006 197.036 57.7956C191.564 46.6796 181.181 41.9676 172.318 46.5776ZM229.318 62.1426C227.118 62.6506 223.18 64.6326 220.566 66.5466C209.04 74.9876 203.829 89.8996 208.699 100.505C210.884 105.263 213.114 107.395 218.072 109.467C222.85 111.463 226.204 111.414 232.209 109.262C243.474 105.224 251.943 92.9776 251.943 80.7276C251.943 70.8796 247.502 64.3286 239.318 62.1036C234.807 60.8766 234.799 60.8766 229.318 62.1426ZM132.318 81.4046C124.571 84.8196 120.534 92.1616 119.993 103.82C119.636 111.514 119.841 112.609 122.733 118.484C129.312 131.849 140.907 136.463 150.932 129.707C157.503 125.279 160.802 117.961 160.812 107.793C160.83 89.7606 145.522 75.5856 132.318 81.4046ZM180.318 106.382C174.51 109.121 172.77 110.913 166.366 120.744C159.451 131.362 153.828 136.49 143.148 141.917C128.149 149.539 121.928 161.816 128.308 171.205C132.352 177.157 141.081 180.84 153.824 181.972C167.389 183.177 181.569 187.457 200.046 195.922C209.967 200.468 218.706 199.904 225.451 194.283C228.96 191.358 230.143 187.907 230.172 180.515C230.202 172.965 229.434 170.947 221.752 158.397C216.851 150.39 215.879 146.229 215.82 133.005C215.768 121.115 214.376 116.839 208.69 111.104C201.387 103.738 189.959 101.836 180.318 106.382ZM243.771 113.899C236.118 116.376 228.595 123.734 224.689 132.563C221.994 138.655 222.372 148.58 225.457 152.744C231.157 160.439 241.3 162.322 251.489 157.578C269.353 149.26 275.7 125.178 262.505 115.782C259.098 113.356 248.685 112.309 243.771 113.899Z" fill="white"/>
</svg>
